<svg width="587" height="586" viewBox="0 0 587 586" fill="none" xmlns="http://www.w3.org/2000/svg">
<path d="M146.749 546.745C183.82 568.111 238.266 548.583 293.546 500.204C300.229 506.061 306.936 511.58 313.65 516.643C363.607 554.315 408.57 565.007 440.251 546.746C471.939 528.482 485.14 484.261 477.438 422.241C476.4 413.888 474.962 405.309 473.215 396.582C481.66 393.728 489.821 390.682 497.586 387.403C555.237 363.056 586.984 329.518 587.001 293C587.001 256.48 555.245 222.953 497.586 198.599C489.838 195.327 481.697 192.288 473.273 189.438C487.602 117.455 477.32 60.62 440.249 39.2539C403.185 17.8912 348.751 37.4094 293.481 85.771C238.224 37.4345 183.806 17.8959 146.749 39.2536C136.652 45.0772 128.423 53.5387 122.157 64.3734C108.771 87.5197 104.318 121.511 109.562 163.758C110.6 172.111 112.038 180.69 113.784 189.418C105.34 192.271 97.1788 195.317 89.4135 198.597C50.1382 215.185 22.8832 236.028 9.49458 259.179C3.22847 270.013 0.00181484 281.356 -0.00114299 292.999C-0.000866297 335.717 44.1575 372.994 113.719 396.599C99.3996 468.564 109.685 525.382 146.749 546.745ZM455.859 424.911C460.475 462.086 456.875 491.857 445.957 510.736C441.586 518.294 436.041 524.109 429.377 527.948C406.085 541.378 368.679 530.941 326.754 499.325C321.022 495.002 315.289 490.351 309.569 485.403C328.906 466.571 348.148 444.348 366.59 419.252C397.051 415.888 425.972 410.432 452.361 403.035C453.799 410.472 454.972 417.775 455.859 424.911ZM337.134 164.17C322.812 163.252 308.241 162.775 293.502 162.775C278.754 162.777 264.175 163.252 249.847 164.173C264.143 146.085 278.834 129.739 293.485 115.473C308.141 129.741 322.83 146.076 337.134 164.17ZM383.378 190.746C406.025 194.004 427.581 198.484 447.538 204.142C442.485 223.974 435.641 244.882 427.082 266.327C420.718 253.48 413.84 240.637 406.468 227.886C399.016 214.998 391.293 202.615 383.378 190.746ZM293.499 184.482C314.304 184.481 334.721 185.471 354.516 187.332C366.028 203.45 377.162 220.625 387.639 238.741C398.049 256.741 407.406 274.899 415.693 292.956C407.472 310.954 398.108 329.158 387.64 347.259C377.171 365.361 366.06 382.557 354.559 398.663C334.75 400.528 314.319 401.518 293.5 401.517C272.545 401.518 252.079 400.48 232.341 398.586C220.828 382.403 209.762 365.245 199.36 347.258C188.951 329.259 179.593 311.101 171.307 293.043C179.527 275.045 188.89 256.842 199.359 238.74C209.828 220.639 220.938 203.442 232.441 187.336C252.249 185.472 272.68 184.483 293.499 184.482ZM180.53 358.113C187.9 370.856 195.598 383.217 203.556 395.137C180.708 391.82 159.193 387.285 139.487 381.749C144.537 361.95 151.371 341.077 159.915 319.673C166.281 332.519 173.157 345.363 180.53 358.113ZM293.498 423.224C308.245 423.223 322.825 422.747 337.152 421.828C322.829 439.947 308.113 456.32 293.435 470.604C278.548 456.179 263.884 439.782 249.734 421.832C263.987 422.741 278.591 423.224 293.498 423.224ZM447.624 381.832C427.646 387.501 406.064 391.988 383.387 395.252C391.299 383.386 399.016 370.996 406.468 358.111C413.919 345.226 420.809 332.361 427.148 319.587C435.655 340.823 442.553 361.726 447.624 381.832ZM565.256 292.999C565.258 300.678 562.988 308.377 558.615 315.939C547.697 334.818 523.666 352.821 489.112 367.413C482.478 370.215 475.556 372.852 468.384 375.328C461.608 348.815 451.881 321.084 439.568 293.067C452.117 264.574 461.776 236.825 468.443 210.693C475.595 213.165 482.498 215.795 489.113 218.589C537.504 239.025 565.261 266.147 565.256 292.999ZM429.379 58.0499C457.578 74.3028 464.344 122.027 452.338 182.961C425.954 175.565 397.04 170.109 366.583 166.747C348.139 141.648 328.897 119.471 309.558 100.64C356.407 59.8034 401.184 41.7992 429.379 58.0499ZM131.141 161.089C124.671 109.029 134.31 71.4861 157.623 58.0511C185.806 41.8062 230.565 59.8247 277.395 100.631C258.07 119.455 238.839 141.668 220.408 166.749C189.946 170.112 161.027 175.568 134.638 182.966C133.199 175.528 132.027 168.226 131.141 161.089ZM139.375 204.167C159.353 198.499 180.934 194.01 203.611 190.748C195.698 202.615 187.983 215.004 180.532 227.889C173.08 240.774 166.19 253.64 159.851 266.413C151.344 245.176 144.446 224.275 139.375 204.167ZM21.7434 293.001C21.7173 266.149 49.4868 239.021 97.8877 218.587C104.521 215.785 111.443 213.148 118.615 210.672C125.39 237.186 135.118 264.916 147.431 292.934C134.888 321.409 125.235 349.141 118.567 375.261C59.7512 355.176 21.7413 325.491 21.7434 293.001ZM134.655 403.064C160.661 410.366 189.521 415.913 220.516 419.311C238.662 443.96 257.851 466.23 277.459 485.343C230.601 526.192 185.819 544.202 157.62 527.949C129.425 511.698 122.655 463.984 134.655 403.064Z" fill="white"/>
</svg>
