<svg width="127" height="102" viewBox="0 0 127 102" fill="none" xmlns="http://www.w3.org/2000/svg">
<path d="M119.427 7.42625C116.883 2.44193 113.516 -0.618812 108.053 3.86198C103.684 7.45454 99.3937 8.0203 93.8965 5.94397C87.7702 3.63568 80.8449 4.01474 75.8464 8.4729C71.9134 12.0032 68.4677 11.5167 64.852 9.67231C59.3491 6.86049 54.1069 4.20709 47.9977 7.9524C46.1898 9.06129 44.926 7.95806 43.4866 6.77563C34.8611 -0.330276 25.1248 -1.92571 18.4885 2.53245C12.7816 6.36263 7.77741 22.2774 10.866 29.3324C12.9289 34.0564 11.5744 38.7013 9.29056 41.349C1.83249 49.9881 -1.27314 59.2156 1.94584 70.3893C-2.00988 79.696 3.84436 79.8714 10.2937 79.0397C18.8342 77.9592 23.9233 82.4004 27.6467 89.2517C34.9631 102.745 34.9914 102.943 49.1708 99.3278C51.4944 98.7394 53.6592 98.8469 55.8751 98.6036C60.7999 98.0718 64.7273 95.4863 65.2487 90.9829C66.0591 84.075 70.6496 80.1769 75.1267 76.3807C78.697 73.3652 83.6218 70.378 87.5492 76.4429C90.3318 80.7597 92.015 78.3439 93.7548 75.7753C98.912 68.1093 101.162 58.9893 107.192 51.5723C113.516 43.7931 112.848 31.3861 123.978 26.232C126.528 25.0552 127.089 19.4712 124.959 17.6721C121.485 14.7415 121.173 10.8604 119.427 7.42625Z" fill="white"/>
</svg>
